<svg xmlns="http://www.w3.org/2000/svg"  viewBox="0 0 100 100" width="100px" height="100px"><path fill="#ee3e54" d="M13,27c-1.105,0-2,0.895-2,2s0.895,2,2,2s2-0.895,2-2S14.105,27,13,27z"/><path fill="#f1bc19" d="M77,12c-0.552,0-1,0.448-1,1s0.448,1,1,1s1-0.448,1-1S77.552,12,77,12z"/><path fill="#fce0a2" d="M50,13c-20.435,0-37,16.565-37,37s16.565,37,37,37s37-16.565,37-37S70.435,13,50,13z"/><path fill="#f1bc19" d="M83,11c-2.209,0-4,1.791-4,4s1.791,4,4,4s4-1.791,4-4S85.209,11,83,11z"/><path fill="#ee3e54" d="M87,22c-1.105,0-2,0.895-2,2s0.895,2,2,2s2-0.895,2-2S88.105,22,87,22z"/><path fill="#fbcd59" d="M81,74c-1.105,0-2,0.895-2,2s0.895,2,2,2s2-0.895,2-2S82.105,74,81,74z M15,59c-2.209,0-4,1.791-4,4 c0,2.209,1.791,4,4,4s4-1.791,4-4C19,60.791,17.209,59,15,59z"/><path fill="#ee3e54" d="M25,85c-1.105,0-2,0.895-2,2s0.895,2,2,2s2-0.895,2-2S26.105,85,25,85z"/><path fill="#fff" d="M18.5,51c-1.381,0-2.5,1.119-2.5,2.5s1.119,2.5,2.5,2.5s2.5-1.119,2.5-2.5S19.881,51,18.5,51z"/><path fill="#f1bc19" d="M21,66c-0.552,0-1,0.448-1,1s0.448,1,1,1s1-0.448,1-1S21.552,66,21,66z"/><path fill="#fff" d="M80,33c-0.552,0-1,0.448-1,1s0.448,1,1,1s1-0.448,1-1S80.552,33,80,33z"/><path fill="#6ee7ea" d="M35,72.3c-4,0-7.3-3.3-7.3-7.3V35c0-4,3.3-7.3,7.3-7.3h30c4,0,7.3,3.3,7.3,7.3v30	c0,4-3.3,7.3-7.3,7.3H35z"/><path fill="#472b29" d="M65,28.4c3.6,0,6.6,3,6.6,6.6v30c0,3.6-3,6.6-6.6,6.6H35c-3.6,0-6.6-3-6.6-6.6V35	c0-3.6,3-6.6,6.6-6.6H65 M65,27H35c-4.4,0-8,3.6-8,8v30c0,4.4,3.6,8,8,8h30c4.4,0,8-3.6,8-8V35C73,30.6,69.4,27,65,27L65,27z"/><path fill="#472b29" d="M68.5,47.4c-0.3,0-0.5-0.2-0.5-0.5V43c0-0.3,0.2-0.5,0.5-0.5S69,42.7,69,43v3.9	C69,47.2,68.8,47.4,68.5,47.4z M68.5,40.5c-0.3,0-0.5-0.2-0.5-0.5v-2c0-0.3,0.2-0.5,0.5-0.5S69,37.7,69,38v2	C69,40.3,68.8,40.5,68.5,40.5z"/><path fill="#472b29" d="M64,69H36c-2.8,0-5-2.2-5-5V36c0-2.8,2.2-5,5-5h25.4c0.3,0,0.5,0.2,0.5,0.5S61.7,32,61.4,32H36	c-2.2,0-4,1.8-4,4v28c0,2.2,1.8,4,4,4h28c2.2,0,4-1.8,4-4V49.6c0-0.3,0.2-0.5,0.5-0.5s0.5,0.2,0.5,0.5V64C69,66.8,66.8,69,64,69z"/><path fill="#472b29" d="M62.138,48.281c-0.609-1.055-1.593-1.81-2.77-2.125C58.983,46.052,58.585,46,58.187,46	c-0.002,0-0.003,0-0.005,0c-0.536-0.803-1.302-1.407-2.206-1.74l0.678-2.531c0.315-1.177,0.154-2.406-0.456-3.461	s-1.593-1.81-2.77-2.125c-0.385-0.103-0.783-0.156-1.182-0.156h0c-2.06,0-3.871,1.39-4.405,3.381l-0.415,1.53l-0.472-1.573	c-0.548-1.968-2.348-3.338-4.393-3.338c-0.398,0-0.796,0.052-1.182,0.156c-2.429,0.651-3.876,3.157-3.225,5.586l1.725,6.438	C39.314,48.987,39,49.968,39,51v1.25v1.25C39,59.29,43.71,64,49.5,64c4.239,0,7.997-2.538,9.633-6.338	c1.294-0.526,2.312-1.634,2.69-3.042l0.771-2.878C62.909,50.565,62.748,49.336,62.138,48.281z M55.771,57.601	c-0.016,0.022-0.051,0.075-0.062,0.099c-0.082,0.128-0.173,0.256-0.254,0.36c-0.146,0.176-0.293,0.352-0.462,0.545	c-0.055,0.071-0.118,0.132-0.187,0.201c-0.055,0.054-0.115,0.117-0.244,0.221c-0.144,0.125-0.287,0.251-0.435,0.372	c-0.135,0.108-0.279,0.217-0.423,0.307c-0.014,0.008-0.026,0.017-0.038,0.026c-0.021,0.011-0.042,0.023-0.062,0.037	c-0.118,0.082-0.237,0.154-0.391,0.244c-0.042,0.028-0.084,0.048-0.148,0.093c-0.043,0.011-0.085,0.028-0.123,0.05	c-0.124,0.07-0.247,0.132-0.371,0.185c-0.13,0.056-0.259,0.112-0.39,0.158c-0.041,0.014-0.071,0.018-0.106,0.042l-0.216,0.082	c-0.148,0.047-0.297,0.093-0.455,0.13v0.001c-0.021,0.005-0.043,0.012-0.064,0.02c-0.181,0.043-0.362,0.085-0.561,0.114	c-0.204,0.037-0.41,0.065-0.655,0.083C49.92,60.99,49.715,61,49.5,61c-4.136,0-7.5-3.364-7.5-7.5V51	c0-0.084,0.009-0.177,0.015-0.242c0.027-0.199,0.069-0.355,0.151-0.543c0.021-0.065,0.052-0.123,0.074-0.167	c0.046-0.076,0.091-0.152,0.167-0.252c0.046-0.07,0.078-0.11,0.138-0.164c0.062-0.062,0.123-0.124,0.165-0.163	c0.073-0.055,0.146-0.11,0.225-0.163C43.236,49.11,43.614,49,44,49h6c0.53,0,1.046,0.212,1.417,0.584	c0.049,0.049,0.094,0.104,0.139,0.161c0.018,0.032,0.039,0.062,0.063,0.089C51.868,50.162,52,50.564,52,51c0,1.103-0.897,2-2,2h-3.5	h-1c-0.276,0-0.5,0.224-0.5,0.5s0.224,0.5,0.5,0.5h1c1.379,0,2.5,1.122,2.5,2.5v1c0,0.276,0.224,0.5,0.5,0.5s0.5-0.224,0.5-0.5v-1	c0-0.98-0.407-1.864-1.058-2.5H50c0.193,0,0.38-0.022,0.563-0.057c0.179,0.943,0.883,1.746,1.843,1.999	c0.214,0.059,0.435,0.088,0.674,0.088c0.91,0,1.723-0.486,2.175-1.234c0.306,0.488,0.775,0.869,1.356,1.063	c-0.013,0.039-0.021,0.074-0.036,0.114c-0.063,0.193-0.138,0.376-0.228,0.574c-0.069,0.167-0.148,0.344-0.244,0.502	c-0.013,0.021-0.025,0.044-0.036,0.068v0C55.978,57.288,55.879,57.449,55.771,57.601z M55.896,48.941l-1.321,4.934	c-0.177,0.681-0.791,1.156-1.495,1.156c-0.148,0-0.281-0.017-0.413-0.053c-0.653-0.172-1.093-0.759-1.131-1.413	C52.409,53.038,53,52.091,53,51c0-0.577-0.164-1.114-0.461-1.578l0.344-1.291c0.11-0.404,0.37-0.74,0.731-0.948	c0.361-0.207,0.782-0.261,1.187-0.15c0.4,0.106,0.735,0.364,0.943,0.726C55.952,48.12,56.007,48.539,55.896,48.941z M53.757,40.95	l-2.033,7.6C51.223,48.2,50.62,48,50,48h-6c-0.348,0-0.69,0.067-1.011,0.182l-1.937-7.238C41.018,40.823,41,40.691,41,40.55	c0-0.709,0.476-1.329,1.162-1.508c0.398-0.109,0.817-0.055,1.177,0.153c0.362,0.209,0.621,0.547,0.732,0.969l1.668,5.533	C45.958,46.465,46.679,47,47.49,47c0.819,0,1.544-0.554,1.762-1.35l1.491-5.503c0.106-0.405,0.365-0.743,0.728-0.952	c0.36-0.208,0.779-0.261,1.182-0.152C53.481,39.262,53.977,40.118,53.757,40.95z M57.014,54.948	c-0.832-0.223-1.327-1.081-1.104-1.912l0.771-2.878C56.867,49.461,57.5,49,58.189,49c0.133,0,0.269,0.017,0.402,0.053	c0.832,0.223,1.327,1.081,1.104,1.913l-0.771,2.878C58.702,54.677,57.843,55.171,57.014,54.948z"/></svg>